<?xml version="1.0" encoding="utf-8"?>
<!-- Generator: Adobe Illustrator 23.0.4, SVG Export Plug-In . SVG Version: 6.00 Build 0)  -->
<svg version="1.1" id="Layer_1" xmlns="http://www.w3.org/2000/svg" xmlns:xlink="http://www.w3.org/1999/xlink" x="0px" y="0px"
	 viewBox="0 0 150 170.1" style="enable-background:new 0 0 150 170.1;" xml:space="preserve">
<style type="text/css">
	.st0{fill:#00853E;}
	.st1{opacity:0.75;}
	.st2{fill:#FFFFFF;}
	.st3{fill:#FFFFFF;stroke:#FFFFFF;stroke-width:5.423000e-02;stroke-miterlimit:10;}
	.st4{display:none;}
	.st5{display:inline;fill:#FFFFFF;}
	.st6{display:inline;}
</style>
<g>
	<g>
		<polygon class="st0" points="150,170.1 75,152.9 0,170.1 0,0 150,0 		"/>
	</g>
	<g class="st1">
		<path class="st2" d="M143.5,6.3v155.3l-68.2-15.8l-0.3-0.1l-0.3,0.1L6.5,161.6V6.3H143.5 M145,4.8H5v158.7l70-16.2l70,16.2V4.8
			L145,4.8z"/>
	</g>
	<g>
		<polygon class="st2" points="104.3,72.7 100.7,82.5 106.2,82.5 107.5,78.7 112.9,78.7 112.9,105.7 109.8,105.7 107.6,111.8 
			122.6,111.8 124.9,105.7 120.7,105.7 120.7,78.7 127,78.7 126.9,82.5 130.7,82.5 134.3,72.6 		"/>
		<path class="st2" d="M43.9,72.7l-2.3,6.1h3.8v17.7c0,3.3-0.6,5.1-2.2,6.7c-1.2,1.3-3.4,2.1-5.6,2.1c-2.6,0-5-0.9-6.5-2.4
			s-2.2-3.9-2.2-7.4V72.8H17.8l-2.2,6.1h4.7v16.9c0,15.8,12.3,17.1,16.1,17.1c9.8,0,16.1-6.3,16.1-16.1V79h2.8l2.2-6.1H43.9V72.7z"
			/>
		<path class="st2" d="M97.3,78.7v33.1h-4.6c0,0-21.5-22.6-22.9-24.2c0,3.2,0,18.1,0,18.1H74l-2.2,6.1H57.9l2.2-6.1h2.4v-27h-5.1
			l2.2-6.1h8.5c0,0,16.4,17.1,22.1,23.2c0-1.9,0-17.1,0-17.1h-4.1l2.2-6.1h14.2l-2.2,6.1L97.3,78.7z"/>
		<path class="st3" d="M134.3,81.3c0,0.7-0.6,1.2-1.2,1.2c-0.7,0-1.2-0.6-1.2-1.2c0-0.7,0.6-1.2,1.2-1.2
			C133.7,80,134.3,80.6,134.3,81.3z M131.9,81.3c0,0.6,0.5,1.1,1.1,1.1s1.1-0.5,1.1-1.1s-0.5-1.1-1.1-1.1
			C132.4,80.1,131.9,80.6,131.9,81.3z M132.6,80.5h0.5c0.3,0,0.5,0.1,0.5,0.4c0,0.2-0.2,0.4-0.4,0.4l0.4,0.7h-0.1l-0.4-0.7h-0.4V82
			h-0.1V80.5z M132.7,81.2h0.3c0.2,0,0.5,0,0.5-0.3c0-0.2-0.2-0.3-0.4-0.3h-0.4L132.7,81.2L132.7,81.2z"/>
	</g>
	<g id="eagle_3_">
		<g>
			<g>
				<g class="st4">
					<path class="st5" d="M93.5,56c0-0.1,0.1-0.3,0.1-0.7c0-0.7-0.2-1.5-1.1-2.2c-1.2-1-3.9-3.6-4.5-4.1c0.1-0.3,0.1-0.9,0.1-1.8
						c0-2.1-0.6-5.7-3.8-9.5c-0.4-0.6-4-4.5-7.4-8.3c-2.8-3.1-5.5-6.2-5.7-6.4c-0.4-0.4-0.4-0.9-0.4-1.1c0-0.1,0-0.2,0-0.2v-0.1
						v-0.1L70.2,20l-1.9,4.1l0,0c0,0.1-0.1,0.4-0.1,0.8c0,0.3,0.1,0.7,0.2,0.9c0.2,0.3,0.6,0.8,0.8,1c-0.1,0.3-1.1,2.5-1.1,2.5
						s-0.1,0.2-0.1,0.6c0,0.1,0,0.2,0.1,0.4c-2.4-2.1-5-4.6-8.2-7.5c-0.4-0.4-0.6-1-0.6-1.5c0-0.3,0.1-0.6,0.1-0.6v-0.1v-0.1
						l-0.6-1.3l-0.3,0.6l-2.2,4.9l0,0c-0.1,0.3-0.2,0.8-0.2,1.1c0,0.7,0.3,1.3,0.9,1.9c-0.2,0.3-1.2,2.6-1.2,2.6l0,0
						c-0.1,0.3-0.2,0.7-0.2,1c0,1.2,1,2.1,1.7,2.6c-0.2,0.4-1.1,2.5-1.1,2.5c-0.1,0.2-0.2,0.4-0.2,0.8c0,1.1,1.2,1.9,2,2.4l0.2,0.1
						c0.3,0.2,8.8,5.3,16.9,10.1c-1.9,0-8.5,0-8.5,0c-1.2,0-1.7-0.3-1.7-0.3l-0.4-0.1h-0.1h-1.8l7.8,7.5c0.7,0.7,1.5,1.1,3.6,0.6
						c0.7-0.2,3.5-1.1,4.3-1.3c0.2,0.1,1.9,0.8,2,0.9c1.9,2.6,4,4.1,5,4.8c0,0.2-0.1,0.3-0.1,0.6c0,0.6,0.2,1,0.3,1l0.6,1l0.4-1
						c0.3-0.8,1.2-1.2,1.8-1.1c0.2,0,0.2,0.6,0.2,0.8l-0.1,0.7c0,0,0.6-0.3,0.9-0.7c1.2-1.1,0.9-2.2,0.4-2.7
						c-0.4-0.6-1.2-0.7-2.1-0.4c0-0.1-0.7-1.1-0.8-1.6c0.3-0.2,1.1-0.7,1.2-0.7c0.2,0,1,0.2,1.2,0.2c0.1,0.1,0.2,0.4,0.2,0.4h0.2
						c1.7,0.2,2,0.3,2.1,0.4c0,0.1-0.1,0.3-0.4,0.6s-0.6,0.4-0.6,0.4s0.3,0.1,0.7,0.2c0.3,0,2,0.1,2.9-1.1c0,0,0.2-0.3,0.2-0.7
						C94.7,57.5,94.5,56.8,93.5,56z"/>
					<path class="st5" d="M94.2,58.2c-0.8,1.2-2.6,1.1-2.6,1.1s0.6-0.3,0.6-0.8c0.1-0.6-2.5-0.8-2.5-0.8l-0.2-0.3L88,57
						c0,0-1.3,0.7-1.7,0.9c0.2,0.3,0.9,1.8,1.1,2c0.4-0.1,1.6-0.4,2,0.2c0.8,1-0.3,2.1-0.4,2.2s-0.3,0.2-0.3,0.2s0.2-1.1-0.3-1.2
						c-0.7-0.1-1.7,0.3-2.1,1.2L86,63.1l-0.2-0.4c0,0-0.2-0.4-0.2-0.9c0-0.2,0-0.4,0.1-0.7c-0.8-0.4-3.1-2.1-5.1-4.9
						c-0.1,0-2-0.9-2.2-1c-0.6,0.2-3.7,1.1-4.4,1.3c-2,0.6-2.6,0.1-3.2-0.4l-7.2-6.8h0.9c0,0,0.6,0.4,1.9,0.4c0,0,8.1,0,9.7,0
						C67.8,44.7,58.4,39.2,58.1,39l-0.2-0.1c-0.7-0.3-1.8-1-1.8-2c0-0.2,0-0.3,0.1-0.6c0,0,1.2-2.6,1.2-2.7
						c-0.6-0.4-1.8-1.2-1.8-2.5c0-0.2,0-0.6,0.2-0.8l0,0c0,0,1.3-2.7,1.3-2.8c-0.6-0.6-0.9-1.2-0.9-1.9c0-0.3,0.1-0.7,0.2-1l0,0l0,0
						l2.2-4.8l0.3,0.7c0,0-0.1,0.2-0.1,0.6c0,0.4,0.1,1.1,0.7,1.7c0,0,22.3,20.4,22.3,20.5L68.8,31c-0.9-0.8-0.4-1.6-0.4-1.6
						l1.2-2.7c0,0-0.6-0.7-0.9-1.1s-0.1-1.3-0.1-1.3l1.6-3.4l0.3,0.7c0,0-0.2,0.8,0.6,1.7c0.3,0.6,12,13.7,13,14.8
						c4.9,5.8,3.5,11.2,3.5,11.2s3.2,3.1,4.7,4.4c1.5,1.2,0.8,2.7,0.8,2.7C94.8,57.5,94.2,58.2,94.2,58.2z"/>
				</g>
				<path class="st2" d="M83.6,45.8L59.4,23.2c-1.1-1.1-0.7-2.6-0.7-2.6l-2,4.4c-0.6,1.3,0.3,2.2,0.9,2.7C58.2,28.2,77,43.4,77,43.4
					v0.7L58.3,29.7c-0.9-0.7-0.8-1.8-0.8-1.8l-1.3,2.8c-0.7,1.6,1,2.6,1.7,3c0.7,0.4,19.3,13.4,19.3,13.4l0.1,0.8
					c0,0-18-12-18.7-12.4c-0.8-0.4-0.8-1.7-0.8-1.7l-1.3,2.8c-0.6,1.1,1,1.9,1.7,2.4c0.4,0.2,10.5,6.3,18.8,11.2H66.1
					c-1.6,0-2.1-0.4-2.1-0.4l1.5,1.3c0.2,0.2,0.9,1,1.9,1c0.7,0,4,0,4,0l0.8,0.3l-3.5,0.2c-0.7,0-0.9,0.1-1.8-0.4l1.6,1.5
					c0.4,0.3,0.8,0.8,1.6,0.7c0.8-0.1,5.1-0.8,5.1-0.8l0.7,0.3l-4.6,1c-1,0.2-1.8-0.3-1.8-0.3s0.9,0.9,1.5,1.5s1.1,0.9,3,0.4
					c0.8-0.2,4.5-1.3,4.5-1.3l2.4,1c2.5,3.4,5.4,5.1,5.4,5.1c-0.6,0.7-0.1,1.5-0.1,1.5c0.4-1,1.6-1.6,2.5-1.5c0.8,0.1,0.6,1,0.6,1
					c0.4-0.6,0.8-1.2,0.3-1.8c-0.7-0.8-2.1-0.1-2.1-0.1L86,57.8l1.9-1.1C88.9,50.3,83.6,45.8,83.6,45.8z"/>
				<path class="st2" d="M82.4,36.4c-0.3-0.3-11.6-13-11.6-13c-1-1.1-0.7-1.9-0.6-2l-1.3,2.9c-0.3,0.8,0.2,1.3,0.7,1.8
					C70,26.7,81.7,39,81.7,39v0.7L70.5,28.5c-0.9-0.9-0.7-1.6-0.6-1.7l-1.2,2.7c-0.2,0.8,0.6,1.3,1.2,2c0.6,0.6,13,12.2,14,13.2
					c2.1,2,3.2,4.6,3.2,4.6C88.4,42.8,83.6,37.9,82.4,36.4z"/>
				<path class="st2" d="M91.9,56.4c-0.1-0.8-1-1.9-1-1.9s1.8,1.7,1.9,1.8c0,0,0.6-1.2-0.6-2.4c-1.7-1.6-5-4.6-5-4.6
					c0.2,0.8,1.6,3.1,0.9,7.5l1.7,0.3l0.2,0.3c0,0,1.9,0.2,2.2,0.6c0,0,0.7,0.4,0,1.1c0,0,1.1-0.2,1.7-0.8c0,0,0.6-0.4-0.1-1.1
					l-1-0.9C92.5,56.1,91.9,56.4,91.9,56.4z"/>
			</g>
		</g>
		<g>
			<path class="st2" d="M88.6,48.4L88.6,48.4l-0.2,0.1v0.7h-0.1v-0.7h-0.2v-0.1C88.1,48.4,88.6,48.4,88.6,48.4z"/>
			<path class="st2" d="M88.8,48.4L88.8,48.4l0.3,0.7l0.2-0.7h0.1v0.8h-0.1v-0.4c0,0,0,0,0-0.1v-0.1l-0.2,0.7H89l-0.2-0.7l0,0
				c0,0,0,0,0,0.1v0.1v0.4h-0.1L88.8,48.4L88.8,48.4z"/>
		</g>
	</g>
</g>
<g class="st4">
	<g class="st6">
		<path class="st2" d="M37,128.1v-12.9h8.8v2.8h-5.6v2.2H45v2.8h-4.8v2.3h5.6v2.8H37z"/>
		<path class="st2" d="M52.4,128.2c-2,0-3.6-0.4-4.9-1.7l2-2c0.7,0.7,1.8,0.9,2.9,0.9c1.2,0,1.8-0.4,1.8-1.2c0-0.3-0.1-0.6-0.3-0.8
			c-0.2-0.2-0.4-0.3-0.9-0.3l-1.6-0.2c-1.1-0.2-2-0.5-2.6-1.1s-0.9-1.5-0.9-2.6c0-2.4,1.8-4.1,4.7-4.1c1.8,0,3.2,0.4,4.3,1.5l-2,2
			c-0.8-0.8-1.9-0.8-2.4-0.8c-1.1,0-1.6,0.6-1.6,1.2c0,0.2,0.1,0.4,0.3,0.6s0.4,0.3,0.9,0.4l1.6,0.2c1.2,0.2,2,0.5,2.5,1.1
			c0.7,0.7,1,1.6,1,2.8C57.3,126.7,55.1,128.2,52.4,128.2z"/>
		<path class="st2" d="M64.9,118v10.1h-3.2V118h-3.2v-2.8H68v2.8H64.9z"/>
		<path class="st2" d="M68.5,128.1v-3.3h3.3v3.3H68.5z"/>
		<path class="st2" d="M80.3,128.1v-9.7l-2.8,2.4v-3.2l2.8-2.4h3v12.9H80.3z"/>
		<path class="st2" d="M90.6,128.2c-2.4,0-4.3-1.3-4.3-4c0-1.6,1-2.4,1.5-2.8c-0.5-0.4-1.3-1.2-1.3-2.6c0-2.4,2-3.8,4.2-3.8
			s4.2,1.4,4.2,3.8c0,1.4-0.9,2.2-1.3,2.6c0.5,0.4,1.5,1.2,1.5,2.8C94.9,126.9,92.9,128.2,90.6,128.2z M90.6,122.8
			c-0.7,0-1.4,0.6-1.4,1.4s0.6,1.4,1.4,1.4c0.7,0,1.4-0.6,1.4-1.4S91.3,122.8,90.6,122.8z M90.6,117.7c-0.7,0-1.2,0.5-1.2,1.2
			s0.5,1.2,1.2,1.2s1.2-0.5,1.2-1.2C91.8,118.3,91.3,117.7,90.6,117.7z"/>
		<path class="st2" d="M103.7,123l-2.5,5.1h-3.3l2.6-5.1c-0.3,0.1-0.5,0.1-0.7,0.1c-1.6,0-3.4-1.3-3.4-3.9c0-2.7,2-4.1,4.3-4.1
			s4.3,1.4,4.3,4.1C104.9,120.5,104.3,121.7,103.7,123z M100.6,117.7c-0.7,0-1.3,0.5-1.3,1.5s0.6,1.5,1.3,1.5c0.7,0,1.3-0.5,1.3-1.5
			C101.9,118.3,101.3,117.7,100.6,117.7z"/>
		<path class="st2" d="M110.9,128.2c-2.1,0-4.2-1.4-4.2-4v-5.1c0-2.7,2-4,4.2-4c2.1,0,4.1,1.4,4.1,4v5.1
			C115,126.8,113,128.2,110.9,128.2z M112.1,119.1c0-0.9-0.5-1.3-1.2-1.3c-0.6,0-1.2,0.4-1.2,1.3v5.1c0,0.9,0.5,1.3,1.2,1.3
			c0.6,0,1.2-0.4,1.2-1.3V119.1z"/>
	</g>
</g>
</svg>
